<?xml version="1.0" encoding="UTF-8"?>
<svg id="Layer_2" data-name="Layer 2" xmlns="http://www.w3.org/2000/svg" viewBox="0 0 402.47 84.03">
  <defs>
    <style>
      .cls-1 {
        fill: #0f8787;
      }

      .cls-2 {
        fill: #fff;
      }

      .cls-2, .cls-3 {
        font-family: ROOSTERPERSONALUSE, 'ROOSTER PERSONAL USE';
        font-size: 67.15px;
      }
    </style>
  </defs>
  <g id="Layer_1-2" data-name="Layer 1">
    <g>
      <path class="cls-1" d="M373.59,40.7c-12.52-3.61-26.88-7-26.88-7-1.33,1.52-2.65,3.04-3.98,4.56l-178.35,10.5c-7.3,.44-7.53-8.18-6.09-13.17,2.03-7.02,14.3-16.47,19.12-18.82,27.44-13.37,45.58-1.96,45.88-3.49,.22-1.11-15.53-12.09-36.1-11.94-35.46,.25-37,22.78-67.21,19.39-14.52-1.63-15.63-9.08-40.41-15.47-11.06-2.85-26.31-5-41.36,.99C15.09,15.46,.42,42.24,0,67.48c-.04,2.3,.05,4.59,.25,6.86H154.75c2.09-4.31,7.22-4.53,8.36-5.41l184.64-15.15,7.01,7.35c4.19-1.34,10.42-3.62,15.07-4.78,7.95-1.98,16.16-.66,22.28,1.87,0,0,7.44-4.7,10.36-6.9-5.91-3.23-14.14-6.36-28.88-10.62Z"/>
      <text class="cls-3" transform="translate(15.2 60.39)"><tspan x="0" y="0">The Electric</tspan></text>
      <text class="cls-2" transform="translate(12.33 57.08)"><tspan x="0" y="0">The Electric</tspan></text>
    </g>
  </g>
</svg>