<?xml version="1.0" encoding="UTF-8"?>
<svg id="Layer_2" data-name="Layer 2" xmlns="http://www.w3.org/2000/svg" viewBox="0 0 31.99 28.43">
  <g id="Layer_1-2" data-name="Layer 1">
    <path id="Icon_awesome-shopping-cart" data-name="Icon awesome-shopping-cart" d="M29.33,16.73l2.63-11.55c.16-.72-.29-1.43-1-1.6-.1-.02-.2-.03-.3-.03H8.84l-.51-2.49C8.2,.45,7.66,0,7.03,0H1.33C.6,0,0,.6,0,1.33v.89c0,.74,.6,1.33,1.33,1.33h3.88l3.9,19.07c-1.49,.85-2.01,2.76-1.15,4.25,.85,1.49,2.76,2.01,4.25,1.15,1.49-.85,2.01-2.76,1.15-4.25-.14-.25-.32-.48-.52-.68h11.64c-1.23,1.2-1.25,3.17-.05,4.4,1.2,1.23,3.17,1.25,4.4,.05,1.23-1.2,1.25-3.17,.05-4.4-.25-.26-.54-.47-.86-.62l.31-1.35c.16-.72-.29-1.43-1-1.6-.1-.02-.2-.03-.3-.03H12.12l-.36-1.78H28.02c.62,0,1.17-.43,1.3-1.04Z"/>
  </g>
</svg>